<?xml version="1.0" standalone="no"?>
<!DOCTYPE svg PUBLIC "-//W3C//DTD SVG 20010904//EN"
 "http://www.w3.org/TR/2001/REC-SVG-20010904/DTD/svg10.dtd">
<svg version="1.0" xmlns="http://www.w3.org/2000/svg"
 width="358.000000pt" height="296.000000pt" viewBox="0 0 358.000000 296.000000"
 preserveAspectRatio="xMidYMid meet">

<g transform="translate(0.000000,296.000000) scale(0.100000,-0.100000)"
fill="#000000" stroke="none">
<path d="M918 2683 l-136 -137 23 -45 c12 -25 36 -86 53 -136 76 -222 82 -449
17 -680 -46 -165 -58 -326 -30 -421 37 -130 112 -230 233 -312 79 -54 154 -90
322 -157 80 -31 195 -81 256 -110 l111 -52 44 25 c52 29 153 74 335 147 260
105 377 182 456 300 63 94 80 149 86 276 4 112 -4 165 -54 349 -35 129 -43
307 -20 440 17 98 71 272 104 337 l20 37 -131 138 -131 138 -711 0 -711 0
-136 -137z m871 41 c6 4 11 2 11 -4 0 -7 7 -10 15 -6 18 7 20 -5 3 -22 -9 -9
-7 -12 10 -12 29 0 28 -16 -3 -36 -33 -22 -92 -20 -123 3 -33 25 -40 43 -12
36 16 -4 19 -2 13 13 -5 13 -3 16 10 11 11 -4 17 -1 17 9 0 8 4 13 9 9 5 -3
13 0 17 6 5 8 9 8 14 -1 4 -7 13 -9 19 -6z m-59 -139 c40 -21 54 -15 134 49
31 26 56 43 56 40 0 -18 -39 -67 -77 -95 l-43 -32 23 -16 c12 -8 28 -21 36
-29 8 -7 24 -20 37 -29 13 -8 24 -24 24 -34 0 -24 -9 -24 -40 2 -14 11 -44 33
-68 50 -39 28 -46 30 -73 19 -16 -7 -29 -17 -29 -22 0 -5 -4 -6 -10 -3 -5 3
-10 3 -10 -2 0 -10 -63 -53 -78 -53 -7 0 -12 5 -12 11 0 12 25 39 37 39 11 1
89 68 83 72 -3 2 -21 15 -40 30 -19 14 -46 45 -59 69 l-24 44 50 -46 c27 -26
65 -55 83 -64z m-188 -132 l47 -55 -48 -47 c-59 -57 -85 -126 -85 -226 -1
-134 54 -229 166 -284 131 -66 290 -27 376 92 37 52 54 113 54 193 1 103 -18
158 -72 217 l-47 51 75 88 c41 48 78 88 82 88 4 0 13 -13 20 -29 11 -27 9 -33
-30 -86 -40 -54 -41 -57 -26 -81 9 -13 18 -24 19 -24 2 0 35 11 75 24 l73 24
13 -32 c7 -17 11 -34 9 -39 -2 -4 -31 -25 -64 -48 -42 -28 -59 -45 -55 -56 3
-8 6 -20 6 -28 0 -8 25 -15 78 -21 l77 -9 3 -36 c3 -40 8 -38 -109 -54 -43 -6
-48 -10 -53 -38 -6 -28 -3 -35 25 -57 89 -70 93 -74 79 -101 -7 -13 -14 -25
-15 -27 -1 -1 -33 9 -70 23 -83 31 -88 31 -105 0 -12 -22 -9 -30 24 -86 20
-34 38 -66 39 -71 1 -5 -11 -16 -26 -26 l-28 -17 -52 56 c-51 56 -52 56 -83
43 l-31 -13 9 -72 c11 -88 7 -99 -31 -99 -22 0 -31 6 -37 23 -3 12 -15 46 -26
75 -17 46 -23 52 -47 52 -25 0 -31 -7 -55 -61 -14 -33 -26 -67 -26 -76 0 -12
-7 -14 -32 -9 -47 9 -51 17 -39 82 16 83 14 92 -18 109 l-29 15 -56 -63 -55
-62 -26 25 -25 26 41 64 42 63 -18 33 -17 32 -62 -23 c-33 -13 -68 -26 -76
-29 -11 -5 -19 3 -28 26 -14 37 -8 44 70 93 47 30 58 53 40 82 -5 7 -35 18
-68 24 -93 16 -94 17 -94 54 0 40 8 43 105 47 57 3 59 4 66 34 5 29 3 33 -63
73 l-68 42 17 32 c10 18 19 33 20 35 1 2 32 -10 70 -27 l68 -30 24 24 24 24
-37 61 c-37 60 -38 61 -20 88 l17 26 26 -33 c14 -18 47 -58 73 -88z m341 -91
c240 -135 161 -500 -113 -520 -61 -4 -76 -1 -124 22 -72 36 -132 103 -152 174
-55 188 88 370 279 358 40 -3 73 -13 110 -34z m-240 -846 c18 -8 45 -25 61
-38 l28 -24 -1 -139 c-1 -77 -4 -141 -6 -144 -2 -2 -20 10 -40 28 -38 33 -118
76 -197 106 -27 10 -48 23 -48 29 0 6 27 53 60 104 65 100 77 107 143 78z
m359 -76 c32 -47 58 -92 58 -101 0 -11 -20 -25 -57 -39 -91 -37 -145 -66 -181
-99 -18 -17 -37 -31 -43 -31 -5 0 -9 61 -9 145 l0 144 43 29 c53 37 65 41 102
39 25 -2 38 -15 87 -87z m-478 -245 c87 -29 111 -40 139 -65 13 -13 -8 -8 -72
16 -50 19 -143 43 -208 54 -64 11 -119 23 -122 27 -16 16 190 -8 263 -32z
m696 24 c-19 -4 -67 -13 -107 -18 -39 -6 -117 -26 -172 -44 -69 -23 -97 -29
-89 -19 33 39 222 91 328 90 63 0 69 -1 40 -9z m-931 -78 c36 -33 40 -64 11
-84 -11 -8 -17 -16 -14 -20 11 -10 -7 -46 -26 -52 -23 -7 -88 19 -96 39 -5 13
74 145 87 146 4 0 21 -13 38 -29z m1011 14 c0 -7 -7 -18 -15 -22 -11 -7 -8
-17 20 -58 38 -55 42 -70 21 -78 -9 -4 -27 14 -51 49 -29 45 -39 53 -50 44
-14 -11 -35 -6 -35 8 0 12 82 72 97 72 7 0 13 -7 13 -15z m-180 -108 c0 -7
-10 -17 -22 -22 -35 -16 -34 -35 1 -35 30 0 71 -29 71 -50 0 -6 -11 -22 -25
-35 -27 -28 -75 -34 -75 -10 0 8 8 15 19 15 21 0 45 23 34 33 -3 4 -18 7 -32
7 -44 0 -58 18 -53 71 3 28 82 54 82 26z m-621 -16 c10 -7 12 -28 8 -92 -3
-46 -6 -85 -6 -86 -1 -1 -7 0 -15 3 -8 3 -16 18 -18 32 -4 31 -36 43 -50 18
-10 -18 -34 -21 -43 -6 -7 11 84 140 99 140 6 0 17 -4 25 -9z m429 -106 c3
-62 0 -72 -19 -87 -27 -23 -51 -23 -79 0 -29 23 -43 152 -17 152 17 0 27 -20
27 -58 0 -47 11 -72 31 -72 22 0 22 3 19 83 -2 52 0 58 17 55 15 -3 18 -14 21
-73z m-243 33 c-3 -18 -7 -54 -10 -80 -4 -32 -11 -48 -21 -48 -16 0 -17 25 -8
108 5 41 11 52 25 52 14 0 17 -6 14 -32z"/>
<path d="M1435 2530 c-3 -5 6 -28 20 -50 37 -59 40 -89 13 -123 l-23 -28 -69
31 c-54 24 -71 28 -78 18 -16 -25 -7 -37 53 -74 l61 -37 -6 -40 c-4 -22 -9
-44 -12 -49 -3 -4 -39 -8 -80 -8 -72 0 -74 -1 -74 -24 0 -22 6 -25 77 -38 l77
-14 10 -39 c10 -43 12 -40 -77 -102 -35 -24 -44 -36 -40 -51 5 -20 6 -20 71 4
87 33 82 34 109 -5 27 -39 24 -53 -18 -116 -32 -48 -34 -56 -17 -73 9 -9 23 2
63 45 54 60 72 64 119 30 18 -14 19 -19 7 -85 -14 -76 -10 -92 19 -92 13 0 23
14 35 55 22 70 33 83 71 88 42 6 48 1 69 -63 25 -78 33 -90 51 -83 14 5 15 18
10 84 l-7 78 39 20 40 20 52 -55 c31 -33 58 -53 66 -50 21 8 17 22 -21 87 -19
33 -35 63 -35 67 1 4 11 20 25 36 l24 29 71 -26 c40 -15 76 -24 81 -21 21 13
5 36 -51 74 -56 38 -59 42 -53 73 11 59 18 64 93 72 64 6 70 9 70 30 0 18 -7
24 -37 29 -21 3 -49 6 -63 6 -37 0 -50 13 -60 53 -8 36 -7 36 56 78 67 44 69
46 55 68 -8 12 -20 11 -82 -7 -68 -21 -73 -21 -86 -4 -34 43 -34 49 2 99 46
63 50 72 37 85 -8 8 -18 4 -34 -18 -13 -16 -40 -48 -62 -72 l-39 -43 31 -32
c56 -59 76 -119 76 -237 0 -87 -3 -113 -21 -152 -31 -67 -86 -123 -151 -155
-48 -23 -70 -28 -137 -28 -67 0 -89 4 -136 28 -73 35 -130 98 -159 173 -19 50
-21 73 -18 149 6 102 27 155 86 217 l35 37 -58 71 c-31 38 -59 70 -61 70 -1 0
-5 -4 -9 -10z"/>
<path d="M1730 2360 c0 -5 5 -10 10 -10 6 0 10 5 10 10 0 6 -4 10 -10 10 -5 0
-10 -4 -10 -10z"/>
<path d="M1668 2322 c-10 -11 -8 -13 12 -10 13 1 25 8 27 14 5 16 -25 13 -39
-4z"/>
<path d="M1820 2336 c0 -2 7 -6 15 -10 8 -3 15 -1 15 4 0 6 -7 10 -15 10 -8 0
-15 -2 -15 -4z"/>
<path d="M1596 2303 c-6 -14 -5 -15 5 -6 7 7 10 15 7 18 -3 3 -9 -2 -12 -12z"/>
<path d="M1777 2303 c-12 -11 -8 -20 17 -31 19 -8 27 -8 35 2 8 10 5 16 -15
24 -29 14 -29 14 -37 5z"/>
<path d="M1910 2282 c0 -10 22 -32 32 -32 15 0 8 15 -12 28 -11 7 -20 9 -20 4z"/>
<path d="M1617 2249 c-7 -27 22 -38 39 -14 7 10 11 22 8 26 -10 17 -42 9 -47
-12z"/>
<path d="M1544 2235 c-11 -27 2 -37 14 -11 7 16 8 26 1 26 -5 0 -12 -7 -15
-15z"/>
<path d="M1729 2224 c-11 -14 -10 -18 6 -30 25 -19 32 -18 45 6 8 15 6 21 -9
30 -25 13 -26 13 -42 -6z"/>
<path d="M1883 2226 c-3 -5 1 -14 10 -21 31 -22 9 -62 -24 -44 -14 7 -21 5
-29 -10 -7 -13 -7 -22 0 -26 24 -15 7 -24 -20 -10 -16 8 -31 15 -34 15 -2 0
-20 -25 -41 -55 -34 -51 -55 -69 -55 -45 0 6 -9 10 -19 10 -19 0 -88 -76 -79
-86 3 -2 18 12 33 32 15 20 30 32 34 28 3 -5 17 -9 29 -10 18 -1 33 12 60 53
27 41 40 53 54 49 10 -3 27 -9 37 -12 15 -4 28 7 57 50 22 30 45 55 52 56 6 0
12 8 12 18 0 14 -8 18 -36 18 -19 0 -38 -4 -41 -10z"/>
<path d="M1600 2145 c0 -30 25 -34 33 -6 5 22 0 31 -20 31 -7 0 -13 -11 -13
-25z"/>
<path d="M1530 2130 c0 -11 5 -20 10 -20 6 0 10 9 10 20 0 11 -4 20 -10 20 -5
0 -10 -9 -10 -20z"/>
<path d="M1967 2136 c-3 -8 0 -22 7 -31 12 -16 13 -16 19 -1 7 18 -1 46 -13
46 -4 0 -10 -6 -13 -14z"/>
<path d="M1690 2121 c0 -27 27 -34 40 -11 14 27 13 30 -15 30 -18 0 -25 -5
-25 -19z"/>
<path d="M1783 2064 c-10 -26 14 -41 35 -21 15 16 15 19 2 27 -21 14 -30 12
-37 -6z"/>
<path d="M1922 2060 c-13 -21 -6 -53 11 -47 23 7 32 36 17 52 -14 13 -17 13
-28 -5z"/>
<path d="M1607 2040 c3 -11 7 -20 9 -20 2 0 4 9 4 20 0 11 -4 20 -9 20 -5 0
-7 -9 -4 -20z"/>
<path d="M1561 2034 c0 -11 3 -14 6 -6 3 7 2 16 -1 19 -3 4 -6 -2 -5 -13z"/>
<path d="M1546 1997 c3 -10 9 -15 12 -12 3 3 0 11 -7 18 -10 9 -11 8 -5 -6z"/>
<path d="M1850 1995 c-17 -20 0 -41 24 -28 14 7 14 12 3 27 -12 16 -14 17 -27
1z"/>
<path d="M1719 1984 c-12 -14 -11 -16 5 -13 11 2 21 10 24 17 5 17 -13 15 -29
-4z"/>
<path d="M1942 1968 c-14 -14 -16 -28 -2 -28 5 0 14 9 20 20 12 22 1 27 -18 8z"/>
<path d="M1750 1931 c0 -5 9 -7 20 -4 11 3 20 7 20 9 0 2 -9 4 -20 4 -11 0
-20 -4 -20 -9z"/>
<path d="M1860 1910 c-8 -5 -12 -12 -9 -15 8 -8 39 5 39 16 0 11 -11 11 -30
-1z"/>
<path d="M1765 1890 c-3 -5 3 -10 14 -10 12 0 21 5 21 10 0 6 -6 10 -14 10 -8
0 -18 -4 -21 -10z"/>
<path d="M1594 1481 c7 -10 31 -9 42 2 4 4 -5 7 -20 7 -15 0 -25 -4 -22 -9z"/>
<path d="M1640 1466 c0 -2 7 -6 15 -10 8 -3 15 -1 15 4 0 6 -7 10 -15 10 -8 0
-15 -2 -15 -4z"/>
<path d="M1585 1445 c22 -8 45 -14 50 -14 18 1 -49 28 -70 28 -11 0 -2 -6 20
-14z"/>
<path d="M1647 1423 c-7 -11 42 -37 51 -29 3 3 -4 9 -14 13 -10 3 -22 11 -25
16 -4 6 -9 5 -12 0z"/>
<path d="M1593 1413 c-19 -7 -16 -19 6 -20 14 -1 18 3 14 13 -3 8 -6 14 -7 13
0 0 -7 -3 -13 -6z"/>
<path d="M1650 1372 c0 -15 39 -22 47 -9 3 7 3 9 -2 5 -4 -4 -16 -3 -26 3 -11
5 -19 6 -19 1z"/>
<path d="M1560 1363 c0 -5 15 -9 33 -10 26 -1 28 0 12 7 -26 11 -45 12 -45 3z"/>
<path d="M1627 1326 c-4 -9 -15 -13 -29 -10 -17 3 -15 1 6 -7 27 -11 45 -2 46
24 0 13 -18 8 -23 -7z"/>
<path d="M1662 1319 c2 -7 10 -15 17 -17 8 -3 12 1 9 9 -2 7 -10 15 -17 17 -8
3 -12 -1 -9 -9z"/>
<path d="M1655 1272 c12 -11 24 -16 29 -11 12 11 8 14 -24 24 l-25 7 20 -20z"/>
<path d="M1607 1269 c7 -7 15 -10 18 -7 3 3 -2 9 -12 12 -14 6 -15 5 -6 -5z"/>
<path d="M1854 1459 c-19 -22 -19 -22 4 -10 12 6 22 16 22 21 0 15 -5 12 -26
-11z"/>
<path d="M1888 1413 c-23 -27 -30 -43 -20 -43 11 0 46 50 39 56 -2 2 -11 -4
-19 -13z"/>
<path d="M1936 1373 c4 -15 -20 -35 -31 -25 -5 4 -5 2 -2 -5 5 -8 15 -8 37 0
31 12 40 27 16 27 -8 0 -16 3 -19 8 -2 4 -2 2 -1 -5z"/>
<path d="M1920 1299 c0 -5 5 -7 10 -4 6 3 10 8 10 11 0 2 -4 4 -10 4 -5 0 -10
-5 -10 -11z"/>
<path d="M1874 1275 c-10 -8 -14 -15 -8 -15 6 0 17 7 24 15 16 19 9 19 -16 0z"/>
<path d="M1254 1109 c-10 -17 13 -36 27 -22 12 12 4 33 -11 33 -5 0 -12 -5
-16 -11z"/>
<path d="M1212 1047 c-14 -16 -6 -27 20 -27 13 0 18 6 16 17 -4 22 -22 27 -36
10z"/>
<path d="M1461 976 c-11 -13 -11 -20 -3 -28 8 -8 13 -7 18 5 10 27 0 41 -15
23z"/>
<path d="M701 1313 c9 -2 21 -14 27 -26 7 -15 11 -17 11 -6 1 20 -19 39 -38
38 -14 -1 -14 -2 0 -6z"/>
<path d="M2790 1301 c-5 -11 -7 -22 -2 -25 4 -2 12 7 19 20 13 28 -2 33 -17 5z"/>
<path d="M2827 1294 c-13 -13 -7 -24 14 -24 11 0 19 5 17 12 -5 14 -22 21 -31
12z"/>
<path d="M660 1280 c0 -5 11 -10 25 -10 14 0 25 5 25 10 0 6 -11 10 -25 10
-14 0 -25 -4 -25 -10z"/>
<path d="M668 1220 c3 -8 15 -31 26 -49 20 -35 20 -35 27 -10 15 54 11 67 -25
71 -27 3 -33 1 -28 -12z"/>
<path d="M2795 1213 c18 -86 14 -83 40 -33 13 25 24 47 25 50 0 3 -16 5 -35 6
-31 0 -34 -2 -30 -23z"/>
<path d="M605 1102 c-15 -70 -27 -137 -27 -150 0 -12 14 -51 31 -86 58 -119
235 -258 435 -344 88 -37 240 -92 256 -92 6 0 10 44 10 114 0 109 1 114 23
120 12 3 32 6 45 6 12 0 22 5 22 10 0 6 -9 10 -19 10 -35 0 -194 60 -304 115
-113 57 -251 151 -303 207 -34 37 -124 178 -124 196 0 6 -4 13 -9 16 -4 3 -21
-52 -36 -122z m81 -87 c-3 -10 1 -15 14 -15 10 0 22 -4 25 -10 4 -6 -5 -10
-19 -10 -19 0 -27 -7 -32 -25 -3 -14 -11 -25 -16 -25 -6 0 -7 11 -3 28 5 22 4
25 -6 15 -16 -16 -29 -17 -29 -3 0 12 50 59 64 60 4 0 6 -7 2 -15z m56 -83
c-2 -16 1 -20 12 -16 27 10 18 -11 -15 -35 -36 -27 -47 -21 -31 14 17 36 15
41 -8 20 -11 -10 -23 -15 -28 -11 -9 9 49 57 63 53 6 -2 9 -14 7 -25z m81 -63
c17 -27 -17 -71 -51 -67 -21 2 -28 9 -30 29 -6 50 56 78 81 38z m37 -30 c0 -6
-5 -20 -11 -32 -11 -22 -11 -22 14 1 29 27 44 15 26 -20 -12 -23 -12 -23 10
-4 33 30 38 10 6 -24 -37 -39 -60 -40 -50 -3 6 27 6 27 -13 10 -28 -26 -36 -6
-16 42 15 38 34 55 34 30z m90 -66 c-1 -5 -7 -19 -15 -33 -9 -18 -10 -29 -3
-38 16 -19 0 -28 -19 -10 -15 15 -15 19 1 52 15 32 37 49 36 29z m98 -48 c27
-14 53 -32 56 -41 4 -10 13 -13 25 -9 21 6 51 -3 51 -16 0 -5 -11 -7 -24 -3
-19 4 -26 1 -31 -15 -7 -23 0 -41 16 -41 6 0 8 9 4 20 -5 15 -3 18 9 14 17 -7
19 -14 10 -38 -15 -39 -69 1 -59 43 l6 26 -16 -22 c-18 -25 -36 -29 -65 -13
-17 9 -18 13 -4 45 15 37 18 52 7 42 -3 -4 -12 -2 -20 4 -16 14 -17 -3 -1 -19
9 -9 7 -12 -10 -12 -12 0 -22 -4 -22 -10 0 -5 5 -10 10 -10 6 0 10 -4 10 -10
0 -14 -13 -13 -34 3 -17 12 -17 15 0 50 10 20 21 37 25 37 4 0 30 -11 57 -25z
m198 -86 c3 -5 -5 -9 -18 -9 -21 -1 -22 -2 -5 -14 23 -18 22 -29 -3 -21 -23 7
-27 -10 -4 -19 8 -3 13 -10 9 -16 -4 -6 -14 -5 -29 2 -23 10 -24 11 -9 53 11
35 18 42 34 38 10 -3 22 -9 25 -14z"/>
<path d="M772 858 c-17 -17 -15 -38 3 -38 16 0 38 34 28 44 -9 9 -18 7 -31 -6z"/>
<path d="M1050 674 c-12 -30 -8 -39 15 -31 17 7 21 42 5 52 -6 3 -15 -6 -20
-21z"/>
<path d="M2872 1202 c-14 -41 -96 -163 -134 -201 -57 -56 -180 -137 -293 -194
-107 -53 -275 -116 -312 -118 -20 -1 9 -12 60 -23 l27 -6 0 -115 c0 -63 1
-115 3 -115 13 0 189 65 262 97 207 90 385 235 442 359 l26 58 -29 143 c-15
79 -32 143 -35 143 -4 0 -11 -12 -17 -28z m13 -206 c14 -21 24 -40 22 -42 -2
-3 -17 2 -33 11 -16 8 -35 15 -41 15 -7 0 -13 5 -13 10 0 6 9 10 19 10 15 0
18 5 14 23 -7 27 -2 22 32 -27z m-81 -56 c-5 -22 -2 -31 10 -36 10 -4 22 -2
29 5 8 8 7 11 -6 11 -9 0 -17 7 -17 15 0 19 24 19 39 1 20 -23 -4 -58 -36 -54
-33 4 -48 27 -39 61 9 37 27 34 20 -3z m-20 -56 c30 -30 14 -78 -24 -72 -12 1
-29 12 -36 23 -12 18 -11 24 2 43 18 26 37 28 58 6z m-88 -74 c14 -23 21 -27
31 -18 7 6 16 8 20 5 8 -8 -16 -37 -31 -37 -11 0 -56 59 -56 73 0 17 20 4 36
-23z m-40 -8 c26 -17 34 -48 18 -70 -18 -26 -31 -27 -56 -5 -40 36 -6 104 38
75z m-56 -71 c23 -46 13 -60 -26 -34 l-27 18 17 -28 c15 -22 16 -27 4 -27 -15
0 -53 68 -43 78 2 3 16 0 30 -6 24 -11 36 0 15 13 -9 6 -5 25 5 25 3 0 14 -18
25 -39z m-76 -47 c18 -40 13 -60 -9 -31 -15 20 -31 6 -21 -18 3 -8 1 -17 -4
-20 -10 -6 -55 74 -46 82 3 3 12 0 20 -6 18 -15 37 -6 29 14 -11 31 14 13 31
-21z m-94 1 c0 -3 -5 -14 -12 -24 -16 -26 -3 -54 22 -46 11 3 20 2 20 -4 0
-16 -40 -24 -55 -11 -18 15 -20 61 -3 78 12 12 28 16 28 7z m-60 -31 c0 -4 -8
-13 -17 -20 -17 -12 -16 -13 7 -14 19 0 21 -3 12 -12 -18 -18 -15 -27 8 -21
24 6 27 -12 4 -21 -30 -12 -42 -6 -53 25 -15 44 -14 57 7 62 27 7 32 7 32 1z
m-60 -24 c0 -5 -4 -10 -9 -10 -6 0 -6 -12 0 -32 11 -41 11 -48 -1 -48 -5 0
-13 15 -18 33 -5 17 -14 31 -21 30 -21 -5 -11 18 12 27 30 12 37 12 37 0z"/>
<path d="M2742 858 c2 -12 11 -24 21 -26 14 -3 18 1 15 20 -2 12 -11 24 -21
26 -14 3 -18 -1 -15 -20z"/>
<path d="M2624 776 c-4 -11 0 -24 9 -34 15 -14 17 -14 23 2 4 11 0 24 -9 34
-15 14 -17 14 -23 -2z"/>
<path d="M1403 653 c-18 -2 -33 -7 -33 -11 0 -10 78 -41 84 -34 11 11 6 52 -6
50 -7 0 -28 -3 -45 -5z"/>
<path d="M2070 635 c0 -30 5 -30 56 -8 38 16 38 16 14 24 -52 15 -70 11 -70
-16z"/>
<path d="M1332 474 l3 -148 105 -37 c237 -84 457 -78 694 17 l65 26 -1 144 c0
79 -3 144 -6 144 -3 0 -50 -18 -103 -40 -123 -50 -216 -70 -329 -70 -132 0
-244 28 -418 107 -10 4 -12 -26 -10 -143z m209 -47 l0 -22 9 23 c13 31 30 28
31 -5 0 -28 1 -28 11 -5 13 26 34 30 23 5 -4 -10 -12 -30 -17 -45 -5 -16 -16
-28 -24 -28 -8 0 -14 11 -15 28 0 26 -1 26 -9 5 -5 -13 -14 -23 -20 -23 -5 0
-10 10 -11 23 0 12 -2 31 -4 41 -2 11 -2 24 1 28 9 14 24 -2 25 -25z m447 -9
c12 -47 4 -74 -11 -37 l-10 24 -4 -22 c-3 -13 -8 -23 -12 -23 -4 0 -13 10 -19
23 -10 21 -11 21 -11 -6 -1 -47 -21 -20 -21 29 0 50 13 56 34 17 l15 -28 1 26
c0 26 7 39 20 39 4 0 12 -19 18 -42z m-339 -10 c-1 -44 -13 -76 -23 -59 -10
15 3 91 15 91 5 0 9 -15 8 -32z m61 10 c0 -6 -7 -8 -15 -4 -20 7 -19 -11 1
-22 23 -13 13 -46 -14 -50 -12 -2 -22 1 -22 7 0 6 7 11 17 11 15 0 15 1 0 18
-20 22 -22 49 -4 55 16 6 37 -3 37 -15z m164 6 c9 -8 16 -24 16 -34 0 -19 -25
-50 -40 -50 -16 0 -40 32 -40 54 0 42 36 59 64 30z m-78 -21 c4 -14 2 -33 -3
-42 -10 -17 -62 -28 -64 -14 0 4 -3 19 -5 33 -7 37 2 50 35 50 25 0 32 -5 37
-27z"/>
<path d="M1835 410 c-8 -13 3 -50 15 -50 12 0 20 28 14 45 -7 17 -20 20 -29 5z"/>
<path d="M1750 385 c0 -17 5 -25 13 -22 6 2 12 12 12 22 0 10 -6 20 -12 23 -8
2 -13 -6 -13 -23z"/>
</g>
</svg>
